# xmcd
#
# Track frame offsets: 
#        150
#        8873
#        26935
#        39474
#        63631
#        78204
#        92749
#        104383
#        118235
#        159565
#        178590
#        198750
#        215359
#
# Disc length: 2907 seconds
#
# Revision: 0
# Processed by: cddbd v1.5.2PL0 Copyright (c) Steve Scherf et al.
# Submitted via: ExactAudioCopy v0.99pb4
#
DISCID=ab0b590d
DTITLE=A. Drabyna - Ne zabarymos
DYEAR=2002
DGENRE=Country
TTITLE0=Koly my vmyraly
TTITLE1=Maty myloserda, ty yesy ograda
TTITLE2=Na Volyni
TTITLE3=Shcho ya komu vynuvat
TTITLE4=Ne sumuy
TTITLE5=Goy, goy, syadmo v kolo
TTITLE6=Viter vie
TTITLE7=Schygol tut mae, porody zbyrae
TTITLE8=Bozhmale
TTITLE9=Ridna Zemlya
TTITLE10=Teche richka
TTITLE11=Rozmalyuyu chorni hmary
TTITLE12=Final
EXTD=
EXTT0=
EXTT1=
EXTT2=
EXTT3=
EXTT4=
EXTT5=
EXTT6=
EXTT7=
EXTT8=
EXTT9=
EXTT10=
EXTT11=
EXTT12=
PLAYORDER=
